
<svg width="374px" height="63px" viewBox="0 0 374 63" version="1.1" xmlns="http://www.w3.org/2000/svg" xmlns:xlink="http://www.w3.org/1999/xlink">
    <!-- Generator: Sketch 44.1 (41455) - http://www.bohemiancoding.com/sketch -->
    <desc>Created with Sketch.</desc>
    <defs>
        <ellipse id="path-1" cx="30.9321212" cy="30.91725" rx="30.4357576" ry="30.421125"></ellipse>
    </defs>
    <g id="home-2" stroke="none" stroke-width="1" fill="none" fill-rule="evenodd">
        <g id="Desktop-HD" transform="translate(-92.000000, -18.000000)">
            <g id="header">
                <g id="logo-pwc-long" transform="translate(85.000000, 19.000000)">
                    <g id="Layer_1">
                        <ellipse id="Oval" fill="#BEE5F0" cx="40.2133333" cy="30.91725" rx="30.4357576" ry="30.421125"></ellipse>
                        <g id="Clipped">
                            <mask id="mask-2" fill="white">
                                <use xlink:href="#path-1"></use>
                            </mask>
                            <g id="Oval"></g>
                            <g id="Group" mask="url(#mask-2)">
                                <g transform="translate(0.000000, 41.737500)" id="Shape">
                                    <path d="M4.19866162e-15,20.750625 L80.4266667,20.750625 L80.4266667,3.48075 C71.5236364,8.575875 62.5024242,6.25275 57.4127273,5.221125 C49.7860606,3.646125 42.3957576,0.338625 34.4854545,0.543375 C29.421517,0.734819316 24.4288959,1.80053651 19.7284848,3.693375 C11.3878106,6.94612153 4.42144618,12.9692409 0,20.750625 L4.19866162e-15,20.750625 Z" fill="#5FC7D1"></path>
                                    <path d="M0,20.750625 L0,4.17375 C0,4.17375 6.58666667,11.8125 20.4060606,10.796625 C25.1333333,10.450125 34.0915152,6.94575 41.5606061,6.859125 C50.4321212,6.804 59.0593939,8.103375 66.4339394,11.70225 C71.4569223,14.1242645 76.1575535,17.1639202 80.4266667,20.750625 L0,20.750625 Z" fill="#47A4AD"></path>
                                </g>
                            </g>
                        </g>
                        <path d="M49.3212121,44.8875 C49.3212121,44.8875 44.5939394,52.471125 39.78,52.93575 C39.5809953,52.9674962 39.3841906,52.867461 39.2926333,52.6880232 C39.201076,52.5085853 39.2356215,52.2906183 39.3781818,52.14825 C41.1036364,50.0535 43.3175758,46.91925 42.3957576,45.69075" id="Shape" fill="#004259"></path>
                        <path d="M14.6466667,26.22375 C14.6466667,26.22375 17.4278788,21.585375 22.4151515,22.995 C22.4151515,22.995 22.4151515,19.0575 27.8672727,18.648 C27.8672727,18.648 27.4890909,22.7745 24.7157576,24.1605 C24.7157576,24.1605 28.2060606,32.389875 38.3933333,29.460375 C42.8079029,27.4717462 46.3005647,23.8794125 48.1630303,19.411875 C48.1630303,19.411875 52.890303,10.009125 58.6339394,12.852 C58.6339394,12.852 63.7393939,15.710625 62.5733333,27.4995 C62.5733333,27.4995 60.9975758,46.029375 41.6393939,47.9745 C41.6393939,47.9745 32.2793939,55.36125 26,53.75475 C25.7591084,53.6895756 25.5804536,53.4868899 25.546122,53.2398208 C25.5117903,52.9927517 25.6284204,52.749074 25.8424242,52.62075 C28.9939394,50.770125 33.1933333,47.8485 32.5709091,45.87975 C32.5709091,45.87975 19.870303,41.241375 20.9890909,25.704 C20.9890909,25.78275 19.090303,27.42075 14.6466667,26.22375 L14.6466667,26.22375 Z" id="Shape" fill="#004C6D"></path>
                        <g id="Group" transform="translate(9.281212, 0.000000)"></g>
                        <path d="M53.9066667,43.407 C58.2692335,39.7339704 60.7246572,34.277843 60.58,28.578375 C60.58,28.578375 60.430303,26.215875 58.8387879,25.522875 C58.0898485,25.2114466 57.6552732,24.4243618 57.7909091,23.625 C58.3660606,20.6325 59.3666667,14.75775 58.6733333,12.922875 C58.6733333,12.922875 63.3375758,14.805 63.0775758,25.113375 C63.069697,25.081875 63.1878788,36.626625 53.9066667,43.407 L53.9066667,43.407 Z" id="Shape" fill="#5FC7D1"></path>
                        <ellipse id="Oval" stroke="#FFFFFF" stroke-width="1.25" cx="40.2133333" cy="30.91725" rx="30.4357576" ry="30.421125"></ellipse>
                        <path d="M92.7963636,20.640375 C92.826093,21.4540133 92.6641672,22.2632531 92.3236364,23.002875 C92.0277256,23.6275334 91.580974,24.1687902 91.0236364,24.577875 C90.444268,24.9887822 89.7918004,25.2854587 89.1012121,25.452 C88.3277249,25.6409775 87.5338132,25.733556 86.7375758,25.727625 L86.7375758,28.877625 L82.5539394,28.877625 L82.5539394,15.60825 L86.7769697,15.60825 C87.5731765,15.6028809 88.3670193,15.6954514 89.1406061,15.883875 C89.8313209,16.050049 90.4838558,16.3467561 91.0630303,16.758 C91.6205971,17.1668425 92.0674012,17.7081628 92.3630303,18.333 C92.681379,19.0591082 92.8295926,19.8483027 92.7963636,20.640375 L92.7963636,20.640375 Z M86.729697,22.105125 L86.9109091,22.105125 C87.3463905,22.1482952 87.7802199,22.0085096 88.1084848,21.71925 C88.5971536,21.0829224 88.5971536,20.1978276 88.1084848,19.5615 C87.7802199,19.2722404 87.3463905,19.1324548 86.9109091,19.175625 L86.729697,19.175625 L86.729697,22.105125 Z" id="Shape" fill="#FFFFFF"></path>
                        <path d="M98.5242424,15.60825 L101.675758,15.60825 L106.686667,28.8225 L102.526667,28.8225 L102.093333,27.633375 L98.0909091,27.633375 L97.6575758,28.8225 L93.4975758,28.8225 L98.5242424,15.60825 Z M100.998182,24.719625 L100.107879,22.404375 L99.2175758,24.719625 L100.998182,24.719625 Z" id="Shape" fill="#FFFFFF"></path>
                        <path d="M107.498182,22.22325 C107.482132,21.2424956 107.669932,20.2690883 108.049697,19.364625 C108.398831,18.5411047 108.910666,17.7964881 109.554545,17.175375 C110.193664,16.5563147 110.952347,16.0739927 111.784242,15.757875 C112.644693,15.4307089 113.558193,15.2651832 114.478788,15.269625 C115.154924,15.2620209 115.829504,15.3360569 116.487879,15.490125 C117.005119,15.6129105 117.511137,15.7788679 118.000606,15.98625 C118.445713,16.173945 118.870701,16.4061249 119.269091,16.67925 L117.220606,20.36475 C116.998693,20.1989892 116.767179,20.0464737 116.527273,19.908 C116.271229,19.7894958 116.008101,19.6869252 115.739394,19.600875 C115.394696,19.4964438 115.035903,19.4459713 114.675758,19.45125 C114.289232,19.4487418 113.906126,19.5237194 113.549091,19.67175 C113.215737,19.8114241 112.911192,20.011686 112.650909,20.262375 C112.392495,20.5135286 112.186319,20.8132776 112.044242,21.144375 C111.897152,21.4849758 111.822047,21.8522769 111.823636,22.22325 C111.821456,22.5950967 111.899383,22.9630556 112.052121,23.302125 C112.199594,23.6341498 112.4111,23.9338627 112.674545,24.184125 C112.944544,24.4376635 113.259953,24.6380393 113.604242,24.77475 C113.974787,24.9236781 114.370937,24.9985894 114.770303,24.99525 C115.151725,25.0009424 115.531745,24.9478183 115.89697,24.83775 C116.187404,24.7502939 116.467441,24.6314677 116.732121,24.483375 C116.986317,24.3464269 117.21976,24.1740801 117.425455,23.9715 L119.505455,27.633375 C119.117694,27.9485026 118.691454,28.2131206 118.23697,28.420875 C117.741131,28.6298148 117.230175,28.8009289 116.708485,28.93275 C115.086378,29.3226217 113.385585,29.2295474 111.815758,28.665 C110.974973,28.3479781 110.206147,27.8660189 109.554545,27.2475 C108.911721,26.6288105 108.404625,25.8832816 108.065455,25.05825 C107.688138,24.1608141 107.495223,23.1967043 107.498182,22.22325 L107.498182,22.22325 Z" id="Shape" fill="#FFFFFF"></path>
                        <polygon id="Shape" fill="#FFFFFF" points="120.750303 15.60825 125.233333 15.60825 125.233333 28.8225 120.750303 28.8225"></polygon>
                        <polygon id="Shape" fill="#FFFFFF" points="127.423636 15.60825 135.215758 15.60825 135.215758 19.07325 131.646667 19.07325 131.646667 20.538 135.152727 20.538 135.152727 23.82975 131.646667 23.82975 131.646667 28.8225 127.423636 28.8225"></polygon>
                        <polygon id="Shape" fill="#FFFFFF" points="137.090909 15.60825 141.573939 15.60825 141.573939 28.8225 137.090909 28.8225"></polygon>
                        <path d="M142.653333,22.22325 C142.637284,21.2424956 142.825084,20.2690883 143.204848,19.364625 C143.553983,18.5411047 144.065818,17.7964881 144.709697,17.175375 C145.346504,16.5572122 146.102426,16.0749406 146.931515,15.757875 C147.791965,15.4307089 148.705466,15.2651832 149.626061,15.269625 C150.302196,15.2620209 150.976777,15.3360569 151.635152,15.490125 C152.152392,15.6129105 152.65841,15.7788679 153.147879,15.98625 C153.592986,16.173945 154.017974,16.4061249 154.416364,16.67925 L152.336364,20.341125 C152.114451,20.1753642 151.882937,20.0228487 151.64303,19.884375 C151.386987,19.7658708 151.123858,19.6633002 150.855152,19.57725 C150.510454,19.4728188 150.151661,19.4223463 149.791515,19.427625 C149.404989,19.4251168 149.021884,19.5000944 148.664848,19.648125 C148.331494,19.7877991 148.02695,19.988061 147.766667,20.23875 C147.508253,20.4899036 147.302076,20.7896526 147.16,21.12075 C147.01291,21.4613508 146.937805,21.8286519 146.939394,22.199625 C146.937214,22.5714717 147.01514,22.9394306 147.167879,23.2785 C147.315352,23.6105248 147.526858,23.9102377 147.790303,24.1605 C148.060301,24.4140385 148.375711,24.6144143 148.72,24.751125 C149.090545,24.9000531 149.486695,24.9749644 149.886061,24.971625 C150.267483,24.9773174 150.647503,24.9241933 151.012727,24.814125 C151.303162,24.7266689 151.583198,24.6078427 151.847879,24.45975 C152.102075,24.3228019 152.335518,24.1504551 152.541212,23.947875 L154.621212,27.60975 C154.233451,27.9248776 153.807212,28.1894956 153.352727,28.39725 C152.856888,28.6061898 152.345933,28.7773039 151.824242,28.909125 C150.202135,29.2989967 148.501342,29.2059224 146.931515,28.641375 C146.090731,28.3243531 145.321904,27.8423939 144.670303,27.223875 C144.043458,26.6060804 143.550058,25.8663359 143.220606,25.050375 C142.844324,24.1553822 142.65143,23.1940542 142.653333,22.22325 L142.653333,22.22325 Z" id="Shape" fill="#FFFFFF"></path>
                        <polygon id="Shape" fill="#56C4CF" points="157.205455 15.60825 161.688485 15.60825 163.21697 20.223 164.745455 15.60825 167.644848 15.60825 169.173333 20.223 170.701818 15.60825 175.184848 15.60825 170.796364 28.8225 167.50303 28.8225 166.171515 24.822 164.84 28.8225 161.546667 28.8225"></polygon>
                        <polygon id="Shape" fill="#56C4CF" points="176.248485 15.60825 180.471515 15.60825 180.471515 20.104875 182.835152 20.104875 182.835152 15.60825 187.073939 15.60825 187.073939 28.8225 182.835152 28.8225 182.835152 23.932125 180.471515 23.932125 180.471515 28.8225 176.248485 28.8225"></polygon>
                        <path d="M193.172121,15.60825 L196.323636,15.60825 L201.334545,28.8225 L197.174545,28.8225 L196.796364,27.633375 L192.793939,27.633375 L192.360606,28.8225 L188.129697,28.8225 L193.172121,15.60825 Z M195.646061,24.719625 L194.755758,22.404375 L193.865455,24.719625 L195.646061,24.719625 Z" id="Shape" fill="#56C4CF"></path>
                        <polygon id="Shape" fill="#56C4CF" points="202.453333 15.60825 206.857576 15.60825 206.857576 25.349625 210.505455 25.349625 210.505455 28.814625 202.453333 28.814625"></polygon>
                        <polygon id="Shape" fill="#56C4CF" points="211.986667 15.60825 219.778788 15.60825 219.778788 19.07325 216.209697 19.07325 216.209697 20.538 219.715758 20.538 219.715758 23.82975 216.209697 23.82975 216.209697 25.3575 219.912727 25.3575 219.912727 28.8225 211.986667 28.8225"></polygon>
                        <path d="M82.2309091,40.595625 C82.2148598,39.6148706 82.4026594,38.6414633 82.7824242,37.737 C83.1315585,36.9134797 83.6433936,36.1688631 84.2872727,35.54775 C84.920167,34.9342013 85.6705225,34.4547403 86.4933333,34.138125 C87.3537835,33.8109589 88.2672837,33.6454332 89.1878788,33.649875 C89.871588,33.6377747 90.5542168,33.7091783 91.2206061,33.8625 C91.7378464,33.9852855 92.2438646,34.1512429 92.7333333,34.358625 C93.1784404,34.54632 93.6034283,34.7784999 94.0018182,35.051625 L91.9218182,38.7135 C91.6999053,38.5477392 91.4683911,38.3952237 91.2284848,38.25675 C90.9724411,38.1382458 90.709313,38.0356752 90.4406061,37.949625 C90.0959085,37.8451938 89.7371154,37.7947213 89.3769697,37.8 C88.990444,37.7974918 88.6073384,37.8724694 88.250303,38.0205 C87.9215663,38.1539258 87.6198795,38.3460585 87.36,38.5875 C87.101586,38.8386536 86.8954095,39.1384026 86.7533333,39.4695 C86.5861596,39.8216473 86.4974508,40.2058674 86.4933333,40.595625 C86.4911529,40.9674717 86.5690795,41.3354306 86.7218182,41.6745 C86.8774821,41.9966039 87.0942174,42.2854454 87.36,42.525 C87.6299983,42.7785385 87.9454079,42.9789143 88.289697,43.115625 C88.6602415,43.2645531 89.0563918,43.3394644 89.4557576,43.336125 C89.8371799,43.3418174 90.2172,43.2886933 90.5824242,43.178625 C90.872859,43.0911689 91.1528953,42.9723427 91.4175758,42.82425 C91.6717716,42.6873019 91.9052148,42.5149551 92.1109091,42.312375 L94.1909091,45.97425 C93.8031484,46.2893776 93.3769085,46.5539956 92.9224242,46.76175 C92.4265851,46.9706898 91.9156297,47.1418039 91.3939394,47.273625 C89.7708679,47.6701241 88.0671264,47.582514 86.4933333,47.021625 C85.6525491,46.7046031 84.8837223,46.2226439 84.2321212,45.604125 C83.5892966,44.9854355 83.0822004,44.2399066 82.7430303,43.414875 C82.3866581,42.5184561 82.2125616,41.5600469 82.2309091,40.595625 L82.2309091,40.595625 Z" id="Shape" fill="#FFFFFF"></path>
                        <path d="M95.16,40.595625 C95.1545327,39.6701135 95.3395789,38.7533691 95.7036364,37.902375 C96.9928434,34.8560794 100.250497,33.139072 103.49369,33.7964815 C106.736882,34.4538911 109.067921,37.3037514 109.067921,40.611375 C109.067921,43.9189986 106.736882,46.7688589 103.49369,47.4262685 C100.250497,48.083678 96.9928434,46.3666706 95.7036364,43.320375 C95.3350943,42.4597103 95.1499502,41.5317529 95.16,40.595625 L95.16,40.595625 Z M99.32,40.595625 C99.318411,40.9665981 99.393516,41.3338992 99.5406061,41.6745 C100.054123,42.8892842 101.352795,43.574282 102.645927,43.3124334 C103.939058,43.0505848 104.868599,41.9143922 104.868599,40.595625 C104.868599,39.2768578 103.939058,38.1406652 102.645927,37.8788166 C101.352795,37.616968 100.054123,38.3019658 99.5406061,39.51675 C99.4043066,39.8596328 99.3399455,40.2268505 99.3515152,40.595625 L99.32,40.595625 Z" id="Shape" fill="#FFFFFF"></path>
                        <polygon id="Shape" fill="#FFFFFF" points="110.917576 33.980625 114.384242 33.980625 118.008485 39.07575 118.008485 33.980625 122.152727 33.980625 122.152727 47.187 118.662424 47.187 115.038182 42.1155 115.038182 47.187 110.917576 47.187"></polygon>
                        <path d="M124.027879,43.092 C124.326695,43.1878329 124.632168,43.2615324 124.941818,43.3125 C125.240224,43.383993 125.542845,43.4365975 125.847879,43.47 C126.185138,43.5108929 126.524512,43.5319292 126.864242,43.533 C127.473535,43.533 127.778182,43.30725 127.778182,42.85575 C127.758869,42.650587 127.659869,42.4611638 127.502424,42.328125 C127.279612,42.1186453 127.045526,41.9214771 126.801212,41.7375 L125.887273,41.013 C125.553604,40.7389598 125.247505,40.4330081 124.973333,40.0995 C124.685236,39.7492528 124.449077,39.3593801 124.272121,38.941875 C124.080513,38.4749848 123.986663,37.9738001 123.996364,37.46925 C123.985122,36.902241 124.100875,36.3398951 124.335152,35.823375 C124.54877,35.367037 124.864102,34.9656534 125.25697,34.65 C125.67422,34.2981899 126.155867,34.0307371 126.675152,33.8625 C127.23219,33.6954995 127.811194,33.6132038 128.392727,33.618375 C128.711109,33.6176308 129.029315,33.633402 129.346061,33.665625 L130.19697,33.75225 L131.047879,33.870375 L131.047879,37.571625 L130.693333,37.571625 L129.621818,37.571625 C129.507668,37.5768469 129.394251,37.5926649 129.28303,37.618875 C129.18168,37.644964 129.087457,37.6933982 129.007273,37.760625 C128.928084,37.8298219 128.88461,37.9312122 128.889091,38.03625 C128.889091,38.138625 128.975758,38.2725 129.15697,38.43 C129.338182,38.5875 129.550909,38.7765 129.810909,38.98125 C130.070909,39.186 130.354545,39.438 130.661818,39.713625 C130.979303,39.9993523 131.26463,40.3188702 131.512727,40.6665 C131.780167,41.0420881 131.999833,41.4494649 132.166667,41.87925 C132.350673,42.3590838 132.441584,42.8695496 132.434545,43.383375 C132.439188,43.9387257 132.34584,44.4905459 132.158788,45.0135 C131.978638,45.5171874 131.68477,45.9725986 131.3,46.344375 C130.87,46.7440274 130.359654,47.0474026 129.80303,47.23425 C129.107108,47.4640817 128.376991,47.5732803 127.644242,47.557125 C127.178459,47.5585185 126.712937,47.5348593 126.249697,47.48625 C125.816364,47.439 125.461818,47.383875 125.107273,47.320875 C124.75386,47.2616458 124.404024,47.1827735 124.059394,47.084625 L124.027879,43.092 Z" id="Shape" fill="#FFFFFF"></path>
                        <polygon id="Shape" fill="#FFFFFF" points="134.09697 33.980625 141.889091 33.980625 141.889091 37.445625 138.32 37.445625 138.32 38.910375 141.826061 38.910375 141.826061 42.202125 138.32 42.202125 138.32 43.729875 142.02303 43.729875 142.02303 47.194875 134.09697 47.194875"></polygon>
                        <path d="M144.008485,33.980625 L148.570303,33.980625 C149.370818,33.9728192 150.167848,34.0870053 150.933939,34.31925 C151.61735,34.5255769 152.254183,34.8625617 152.809091,35.3115 C153.333264,35.7382216 153.75581,36.2762376 154.046061,36.8865 C154.356432,37.5822406 154.509758,38.3377454 154.495152,39.099375 C154.510997,39.6735217 154.417415,40.2454397 154.219394,40.784625 C154.064248,41.192415 153.857736,41.5787779 153.604848,41.934375 C153.342508,42.2792099 153.028991,42.5819536 152.675152,42.832125 L155.15697,47.194875 L150.201212,47.194875 L148.215758,43.848 L148.215758,47.194875 L144.008485,47.194875 L144.008485,33.980625 Z M148.231515,40.4775 L148.452121,40.4775 C148.901436,40.4908015 149.344915,40.3731444 149.728485,40.138875 C150.063506,39.8590784 150.257127,39.4451812 150.257127,39.0088125 C150.257127,38.5724438 150.063506,38.1585466 149.728485,37.87875 C149.344915,37.6444806 148.901436,37.5268235 148.452121,37.540125 L148.231515,37.540125 L148.231515,40.4775 Z" id="Shape" fill="#FFFFFF"></path>
                        <polygon id="Shape" fill="#FFFFFF" points="159.876364 33.980625 162.113939 39.729375 164.375152 33.980625 168.992121 33.980625 163.839394 47.194875 160.412121 47.194875 155.259394 33.980625"></polygon>
                        <path d="M171.631515,33.980625 L174.78303,33.980625 L179.793939,47.194875 L175.633939,47.194875 L175.200606,46.00575 L171.198182,46.00575 L170.796364,47.187 L166.636364,47.187 L171.631515,33.980625 Z M174.105455,43.092 L173.215152,40.77675 L172.324848,43.092 L174.105455,43.092 Z" id="Shape" fill="#FFFFFF"></path>
                        <polygon id="Shape" fill="#FFFFFF" points="180.912727 33.980625 184.379394 33.980625 188.027273 39.07575 188.027273 33.980625 192.171515 33.980625 192.171515 47.187 188.681212 47.187 185.05697 42.1155 185.05697 47.187 180.912727 47.187"></polygon>
                        <path d="M194.046667,40.595625 C194.030617,39.6148706 194.218417,38.6414633 194.598182,37.737 C194.947316,36.9134797 195.459151,36.1688631 196.10303,35.54775 C196.741977,34.9380709 197.49775,34.4639309 198.324848,34.153875 C199.185299,33.8267089 200.098799,33.6611832 201.019394,33.665625 C201.69553,33.6580209 202.37011,33.7320569 203.028485,33.886125 C203.545725,34.0089105 204.051743,34.1748679 204.541212,34.38225 C204.986319,34.569945 205.411307,34.8021249 205.809697,35.07525 L203.729697,38.737125 C203.507784,38.5713642 203.27627,38.4188487 203.036364,38.280375 C202.78032,38.1618708 202.517192,38.0593002 202.248485,37.97325 C201.903787,37.8688188 201.544994,37.8183463 201.184848,37.823625 C200.798323,37.8211168 200.415217,37.8960944 200.058182,38.044125 C199.728431,38.1695829 199.42413,38.3536769 199.16,38.5875 C198.901586,38.8386536 198.69541,39.1384026 198.553333,39.4695 C198.406243,39.8101008 198.331138,40.1774019 198.332727,40.548375 C198.330547,40.9202217 198.408473,41.2881806 198.561212,41.62725 C198.69987,41.9629095 198.903341,42.2679703 199.16,42.525 C199.429998,42.7785385 199.745408,42.9789143 200.089697,43.115625 C200.460241,43.2645531 200.856392,43.3394644 201.255758,43.336125 C201.63718,43.3418174 202.0172,43.2886933 202.382424,43.178625 C202.672859,43.0911689 202.952895,42.9723427 203.217576,42.82425 C203.471772,42.6873019 203.705215,42.5149551 203.910909,42.312375 L205.990909,45.97425 C205.603148,46.2893776 205.176909,46.5539956 204.722424,46.76175 C204.226585,46.9706898 203.71563,47.1418039 203.193939,47.273625 C201.571832,47.6634967 199.871039,47.5704224 198.301212,47.005875 C197.449873,46.6949561 196.670065,46.215511 196.008485,45.59625 C195.36566,44.9775605 194.858564,44.2320316 194.519394,43.407 C194.177497,42.5103061 194.016825,41.5547661 194.046667,40.595625 L194.046667,40.595625 Z" id="Shape" fill="#FFFFFF"></path>
                        <polygon id="Shape" fill="#FFFFFF" points="210.324242 41.493375 206.250909 33.980625 210.978182 33.980625 212.506667 36.77625 214.011515 33.980625 218.738788 33.980625 214.633939 41.509125 214.633939 47.194875 210.410909 47.194875"></polygon>
                        <path d="M244.549697,34.768125 C245.166092,35.1531334 245.879219,35.3552255 246.606061,35.350875 C247.488485,35.350875 248.3,34.878375 248.3,33.996375 C248.3,33.397875 247.906061,32.99625 247.015758,32.52375 C245.96,31.95675 245.164242,31.224375 245.164242,30.16125 C245.164242,28.413 246.67697,27.318375 248.520606,27.318375 C249.226406,27.2911911 249.92708,27.4486313 250.553333,27.775125 L250.041212,29.09025 C249.532999,28.8166618 248.963883,28.6758057 248.386667,28.68075 C247.386061,28.68075 246.810909,29.2635 246.810909,29.869875 C246.810909,30.47625 247.32303,30.862125 248.181818,31.3425 C249.292727,31.92525 249.954545,32.657625 249.954545,33.768 C249.954545,35.595 248.481212,36.71325 246.432727,36.71325 C245.580355,36.7511639 244.736649,36.5286645 244.013939,36.075375 L244.549697,34.768125 Z" id="Shape" fill="#56C4CF"></path>
                        <path d="M255.044242,36.55575 C255.044242,36.162 255.115152,35.634375 255.162424,35.067375 L255.099394,35.067375 C254.704486,36.0321799 253.778215,36.6740856 252.735758,36.705375 C251.561818,36.705375 250.789697,35.784 250.789697,34.461 C250.755793,33.2641138 251.19921,32.1028316 252.022308,31.2328636 C252.845407,30.3628955 253.980694,29.8555797 255.178182,29.822625 L255.430303,29.822625 C256.105716,29.8256815 256.777127,29.9264773 257.423636,30.121875 L256.746061,33.555375 C256.558252,34.544259 256.468524,35.5492528 256.478182,36.55575 L255.044242,36.55575 Z M255.698182,31.10625 C255.484026,31.0553808 255.26433,31.0315699 255.044242,31.035375 C253.578788,31.035375 252.46,32.673375 252.46,34.185375 C252.46,34.878375 252.72,35.445375 253.405455,35.445375 C254.090909,35.445375 255.028485,34.524 255.343636,32.846625 L255.698182,31.10625 Z" id="Shape" fill="#56C4CF"></path>
                        <path d="M258.038182,36.55575 L259.038788,31.185 L258.187879,31.185 L258.416364,29.964375 L259.267273,29.964375 L259.338182,29.62575 C259.442861,28.7834281 259.828706,28.0010118 260.433333,27.405 C260.923401,26.9893763 261.547663,26.7655336 262.190303,26.775 C262.524879,26.7581267 262.858924,26.8173643 263.167273,26.94825 L262.867879,28.1925 C262.66444,28.1142879 262.447598,28.0768271 262.229697,28.08225 C261.441818,28.08225 261.063636,28.77525 260.913939,29.65725 L260.858788,29.97225 L262.190303,29.97225 L261.961818,31.192875 L260.614545,31.192875 L259.598182,36.563625 L258.038182,36.55575 Z" id="Shape" fill="#56C4CF"></path>
                        <path d="M266.917576,36.17775 C266.179667,36.5280874 265.370749,36.7032687 264.553939,36.689625 C263.813212,36.7647469 263.078025,36.5024378 262.552327,35.975465 C262.026629,35.4484921 261.766329,34.7129003 261.843636,33.97275 C261.843636,31.980375 263.309091,29.822625 265.578182,29.822625 C266.112394,29.7553069 266.649984,29.9188153 267.056133,30.2721453 C267.462282,30.6254752 267.698466,31.1351129 267.705455,31.67325 C267.705455,33.366375 265.932727,33.901875 263.387879,33.854625 C263.363099,34.1742099 263.422878,34.4946864 263.561212,34.783875 C263.850835,35.2449852 264.373524,35.5062041 264.916364,35.461125 C265.546579,35.4655224 266.168437,35.3168888 266.728485,35.028 L266.917576,36.17775 Z M265.412727,30.996 C264.49307,31.075437 263.742424,31.764276 263.584848,32.673375 C265.207879,32.673375 266.255758,32.468625 266.255758,31.689 C266.255758,31.255875 265.909091,30.996 265.404848,30.996 L265.412727,30.996 Z" id="Shape" fill="#56C4CF"></path>
                        <path d="M271.566061,36.55575 L271.172121,27.4365 L272.747879,27.4365 L272.842424,32.1615 L272.842424,34.85475 L272.842424,34.85475 C273.126061,34.06725 273.393939,33.27975 273.858788,32.200875 L275.899394,27.475875 L277.61697,27.475875 L277.687879,32.074875 L277.687879,34.82325 L277.687879,34.82325 C277.987273,33.957 278.286667,33.09075 278.649091,32.169375 L280.610909,27.444375 L282.273333,27.444375 L278.160606,36.563625 L276.372121,36.563625 L276.238182,32.169375 C276.238182,31.114125 276.238182,30.373875 276.293333,29.3265 L276.293333,29.3265 C275.986061,30.263625 275.702424,31.114125 275.27697,32.0985 L273.220606,36.5715 L271.566061,36.55575 Z" id="Shape" fill="#56C4CF"></path>
                        <path d="M285.101818,36.55575 C285.101818,36.162 285.172727,35.634375 285.22,35.067375 L285.22,35.067375 C284.825092,36.0321799 283.898821,36.6740856 282.856364,36.705375 C281.682424,36.705375 280.910303,35.784 280.910303,34.461 C280.876399,33.2641138 281.319816,32.1028316 282.142915,31.2328636 C282.966013,30.3628955 284.1013,29.8555797 285.298788,29.822625 L285.550909,29.822625 C286.226322,29.8256815 286.897733,29.9264773 287.544242,30.121875 L286.866667,33.555375 C286.678858,34.544259 286.58913,35.5492528 286.598788,36.55575 L285.101818,36.55575 Z M285.755758,31.10625 C285.541601,31.0553808 285.321906,31.0315699 285.101818,31.035375 C283.636364,31.035375 282.517576,32.673375 282.517576,34.185375 C282.517576,34.878375 282.777576,35.445375 283.46303,35.445375 C284.148485,35.445375 285.086061,34.524 285.401212,32.846625 L285.755758,31.10625 Z" id="Shape" fill="#56C4CF"></path>
                        <path d="M291.168485,28.161 L290.829697,29.97225 L292.318788,29.97225 L292.074545,31.192875 L290.601212,31.192875 L290.081212,33.8625 C290.019881,34.1688414 289.982997,34.479569 289.970909,34.79175 C289.950633,34.9265278 289.984969,35.063823 290.066311,35.1732112 C290.147652,35.2825994 290.26928,35.3550471 290.404242,35.3745 L290.553939,35.3745 C290.734864,35.388921 290.916651,35.388921 291.097576,35.3745 L290.947879,36.603 C290.614721,36.6968139 290.269726,36.7419069 289.923636,36.736875 C288.836364,36.736875 288.347879,36.138375 288.347879,35.382375 C288.350807,34.9685131 288.401032,34.5563404 288.497576,34.153875 L289.064848,31.2165 L288.190303,31.2165 L288.418788,29.995875 L289.309091,29.995875 L289.57697,28.578375 L291.168485,28.161 Z" id="Shape" fill="#56C4CF"></path>
                        <path d="M297.140606,36.17775 C296.402697,36.5280874 295.593779,36.7032687 294.77697,36.689625 C294.048194,36.7443465 293.332504,36.4741974 292.821845,35.9516312 C292.311186,35.429065 292.057819,34.707561 292.129697,33.980625 C292.129697,31.98825 293.595152,29.8305 295.864242,29.8305 C296.398455,29.7631819 296.936045,29.9266903 297.342193,30.2800203 C297.748342,30.6333502 297.984526,31.1429879 297.991515,31.681125 C297.991515,33.37425 296.218788,33.90975 293.673939,33.8625 C293.64916,34.1820849 293.708939,34.5025614 293.847273,34.79175 C294.136896,35.2528602 294.659585,35.5140791 295.202424,35.469 C295.83264,35.4733974 296.454497,35.3247638 297.014545,35.035875 L297.140606,36.17775 Z M295.635758,30.996 C294.7161,31.075437 293.965454,31.764276 293.807879,32.673375 C295.430909,32.673375 296.478788,32.468625 296.478788,31.689 C296.478788,31.255875 296.14,30.996 295.635758,30.996 L295.635758,30.996 Z" id="Shape" fill="#56C4CF"></path>
                        <path d="M298.180606,36.55575 L298.968485,32.500125 C299.141818,31.570875 299.228485,30.562875 299.307273,29.97225 L300.678182,29.97225 C300.678182,30.421125 300.599394,30.877875 300.528485,31.366125 L300.528485,31.366125 C300.85518,30.483914 301.66277,29.8700727 302.600606,29.791125 L302.939394,29.791125 L302.624242,31.366125 C302.524608,31.3580469 302.424483,31.3580469 302.324848,31.366125 C301.198182,31.366125 300.481212,32.500125 300.229091,33.90975 L299.724848,36.563625 L298.180606,36.55575 Z" id="Shape" fill="#56C4CF"></path>
                        <path d="M302.781818,35.091 C303.265468,35.3599418 303.804744,35.5135615 304.357576,35.539875 C304.995758,35.539875 305.373939,35.161875 305.373939,34.752375 C305.373939,34.342875 305.161212,34.075125 304.507273,33.7365 C303.780091,33.4612163 303.274864,32.794025 303.207273,32.01975 C303.207273,30.744 304.318182,29.854125 305.878182,29.854125 C306.423417,29.8344753 306.964964,29.9508521 307.453939,30.19275 L307.044242,31.32675 C306.664872,31.1288896 306.243061,31.02619 305.815152,31.0275 C305.216364,31.0275 304.814545,31.350375 304.814545,31.815 C304.814545,32.279625 305.113939,32.437125 305.665455,32.720625 C306.41959,33.0063595 306.94937,33.6910904 307.036364,34.4925 C307.036364,35.9415 305.815152,36.736875 304.231515,36.736875 C303.575305,36.7490059 302.92958,36.5712435 302.372121,36.225 L302.781818,35.091 Z" id="Shape" fill="#56C4CF"></path>
                        <path d="M306.626667,38.201625 C307.200169,37.0612721 307.679736,35.8760992 308.060606,34.657875 L309.833333,34.524 C309.272997,35.787681 308.589496,36.9931252 307.792727,38.122875 L306.626667,38.201625 Z" id="Shape" fill="#56C4CF"></path>
                        <path d="M313.079394,34.768125 C313.695789,35.1531334 314.408916,35.3552255 315.135758,35.350875 C316.018182,35.350875 316.829697,34.878375 316.829697,33.996375 C316.829697,33.397875 316.435758,32.99625 315.545455,32.52375 C314.489697,31.95675 313.693939,31.224375 313.693939,30.16125 C313.693939,28.413 315.206667,27.318375 317.050303,27.318375 C317.756103,27.2911911 318.456777,27.4486313 319.08303,27.775125 L318.570909,29.09025 C318.062696,28.8166618 317.49358,28.6758057 316.916364,28.68075 C315.915758,28.68075 315.340606,29.2635 315.340606,29.869875 C315.340606,30.47625 315.852727,30.862125 316.711515,31.3425 C317.822424,31.92525 318.484242,32.657625 318.484242,33.768 C318.484242,35.595 317.010909,36.71325 314.962424,36.71325 C314.110052,36.7511639 313.266346,36.5286645 312.543636,36.075375 L313.079394,34.768125 Z" id="Shape" fill="#56C4CF"></path>
                        <path d="M323.566061,36.55575 C323.566061,36.162 323.63697,35.634375 323.684242,35.067375 L323.684242,35.067375 C323.289334,36.0321799 322.363063,36.6740856 321.320606,36.705375 C320.146667,36.705375 319.374545,35.784 319.374545,34.461 C319.340641,33.2641138 319.784058,32.1028316 320.607157,31.2328636 C321.430256,30.3628955 322.565542,29.8555797 323.76303,29.822625 L324.015152,29.822625 C324.690564,29.8256815 325.361975,29.9264773 326.008485,30.121875 L325.330909,33.555375 C325.1431,34.544259 325.053373,35.5492528 325.06303,36.55575 L323.566061,36.55575 Z M324.22,31.10625 C324.005844,31.0553808 323.786148,31.0315699 323.566061,31.035375 C322.100606,31.035375 320.981818,32.673375 320.981818,34.185375 C320.981818,34.878375 321.241818,35.445375 321.927273,35.445375 C322.612727,35.445375 323.550303,34.524 323.865455,32.846625 L324.22,31.10625 Z" id="Shape" fill="#56C4CF"></path>
                        <path d="M326.567879,36.55575 L327.584242,31.185 L326.733333,31.185 L326.961818,29.964375 L327.812727,29.964375 L327.883636,29.62575 C327.988316,28.7834281 328.37416,28.0010118 328.978788,27.405 C329.468856,26.9893763 330.093118,26.7655336 330.735758,26.775 C331.070334,26.7581267 331.404379,26.8173643 331.712727,26.94825 L331.413333,28.1925 C331.209894,28.1142879 330.993053,28.0768271 330.775152,28.08225 C329.987273,28.08225 329.609091,28.77525 329.459394,29.65725 L329.404242,29.97225 L330.735758,29.97225 L330.507273,31.192875 L329.16,31.192875 L328.143636,36.563625 L326.567879,36.55575 Z" id="Shape" fill="#56C4CF"></path>
                        <path d="M335.46303,36.17775 C334.725121,36.5280874 333.916203,36.7032687 333.099394,36.689625 C332.358666,36.7647469 331.623479,36.5024378 331.097781,35.975465 C330.572083,35.4484921 330.311783,34.7129003 330.389091,33.97275 C330.389091,31.980375 331.854545,29.822625 334.123636,29.822625 C334.657849,29.7553069 335.195439,29.9188153 335.601587,30.2721453 C336.007736,30.6254752 336.24392,31.1351129 336.250909,31.67325 C336.250909,33.366375 334.478182,33.901875 331.933333,33.854625 C331.907801,34.1742497 331.967616,34.4949204 332.106667,34.783875 C332.39629,35.2449852 332.918979,35.5062041 333.461818,35.461125 C334.092034,35.4655224 334.713891,35.3168888 335.273939,35.028 L335.46303,36.17775 Z M333.958182,30.996 C333.038524,31.075437 332.287879,31.764276 332.130303,32.673375 C333.753333,32.673375 334.801212,32.468625 334.801212,31.689 C334.751698,31.2626944 334.369788,30.9545118 333.942424,30.996 L333.958182,30.996 Z" id="Shape" fill="#56C4CF"></path>
                        <path d="M340.111515,36.55575 L339.717576,27.4365 L341.293333,27.4365 L341.387879,32.1615 L341.387879,34.85475 L341.387879,34.85475 C341.671515,34.06725 341.939394,33.27975 342.404242,32.200875 L344.444848,27.475875 L346.162424,27.475875 L346.233333,32.074875 L346.233333,34.82325 L346.233333,34.82325 C346.532727,33.957 346.832121,33.09075 347.194545,32.169375 L349.156364,27.444375 L350.818788,27.444375 L346.706061,36.563625 L344.917576,36.563625 L344.783636,32.169375 C344.783636,31.114125 344.783636,30.373875 344.838788,29.3265 L344.838788,29.3265 C344.531515,30.263625 344.247879,31.114125 343.822424,32.0985 L341.766061,36.5715 L340.111515,36.55575 Z" id="Shape" fill="#56C4CF"></path>
                        <path d="M349.952121,36.55575 L351.764242,26.94825 L353.34,26.94825 L352.552121,30.94875 L352.552121,30.94875 C353.067923,30.2447733 353.885248,29.8246368 354.758182,29.81475 C355.226091,29.7875517 355.681829,29.9699612 356.001632,30.3124421 C356.321434,30.6549231 356.472105,31.1219248 356.412727,31.586625 C356.408179,31.9775006 356.371285,32.3673301 356.302424,32.752125 L355.569697,36.55575 L353.993939,36.55575 L354.695152,32.862375 C354.744803,32.5762291 354.771152,32.2865292 354.773939,31.996125 C354.773939,31.492125 354.545455,31.10625 353.986061,31.10625 C353.198182,31.10625 352.347273,32.027625 352.087273,33.4215 L351.488485,36.5715 L349.952121,36.55575 Z" id="Shape" fill="#56C4CF"></path>
                        <path d="M361.46303,36.55575 C361.46303,36.162 361.533939,35.634375 361.581212,35.067375 L361.581212,35.067375 C361.186304,36.0321799 360.260033,36.6740856 359.217576,36.705375 C358.043636,36.705375 357.271515,35.784 357.271515,34.461 C357.237611,33.2641138 357.681028,32.1028316 358.504127,31.2328636 C359.327226,30.3628955 360.462512,29.8555797 361.66,29.822625 L361.912121,29.822625 C362.587534,29.8256815 363.258945,29.9264773 363.905455,30.121875 L363.227879,33.555375 C363.04007,34.544259 362.950342,35.5492528 362.96,36.55575 L361.46303,36.55575 Z M362.11697,31.10625 C361.902814,31.0553808 361.683118,31.0315699 361.46303,31.035375 C359.997576,31.035375 358.878788,32.673375 358.878788,34.185375 C358.878788,34.878375 359.138788,35.445375 359.824242,35.445375 C360.509697,35.445375 361.447273,34.524 361.762424,32.846625 L362.11697,31.10625 Z" id="Shape" fill="#56C4CF"></path>
                        <polygon id="Shape" fill="#56C4CF" points="364.165455 36.55575 366.009091 26.94825 367.584848 26.94825 365.75697 36.55575"></polygon>
                        <path d="M372.438182,36.17775 C371.700273,36.5280874 370.891355,36.7032687 370.074545,36.689625 C369.333818,36.7647469 368.598631,36.5024378 368.072933,35.975465 C367.547235,35.4484921 367.286935,34.7129003 367.364242,33.97275 C367.364242,31.980375 368.829697,29.822625 371.098788,29.822625 C371.633,29.7553069 372.17059,29.9188153 372.576739,30.2721453 C372.982888,30.6254752 373.219072,31.1351129 373.226061,31.67325 C373.226061,33.366375 371.453333,33.901875 368.908485,33.854625 C368.883706,34.1742099 368.943484,34.4946864 369.081818,34.783875 C369.371441,35.2449852 369.89413,35.5062041 370.43697,35.461125 C371.067185,35.4655224 371.689043,35.3168888 372.249091,35.028 L372.438182,36.17775 Z M370.917576,31.003875 C369.997918,31.083312 369.247273,31.772151 369.089697,32.68125 C370.712727,32.68125 371.760606,32.4765 371.760606,31.696875 C371.768485,31.255875 371.429697,31.003875 370.917576,31.003875 L370.917576,31.003875 Z" id="Shape" fill="#56C4CF"></path>
                        <path d="M373.643636,35.091 C374.127286,35.3599418 374.666562,35.5135615 375.219394,35.539875 C375.857576,35.539875 376.235758,35.161875 376.235758,34.752375 C376.235758,34.342875 376.02303,34.075125 375.369091,33.7365 C374.632204,33.4563977 374.124969,32.774264 374.069091,31.98825 C374.069091,30.7125 375.18,29.822625 376.74,29.822625 C377.285235,29.8029753 377.826783,29.9193521 378.315758,30.16125 L377.906061,31.29525 C377.526691,31.0973896 377.104879,30.99469 376.67697,30.996 C376.078182,30.996 375.676364,31.318875 375.676364,31.7835 C375.676364,32.248125 375.975758,32.405625 376.527273,32.689125 C377.281408,32.9748595 377.811188,33.6595904 377.898182,34.461 C377.898182,35.91 376.67697,36.705375 375.093333,36.705375 C374.456212,36.7179628 373.828352,36.5515233 373.281212,36.225 L373.643636,35.091 Z" id="Shape" fill="#56C4CF"></path>
                        <path d="M378.441818,35.728875 C378.429012,35.4322267 378.534769,35.1426671 378.735772,34.9240336 C378.936775,34.7054001 379.21652,34.5756451 379.513333,34.563375 L379.584242,34.563375 C380.075366,34.5663903 380.480931,34.947713 380.513939,35.4375 L380.513939,35.524125 C380.522418,35.8165593 380.414263,36.1003715 380.21329,36.3130644 C380.012316,36.5257573 379.735006,36.649889 379.442424,36.658125 L379.387273,36.658125 C379.142769,36.6644717 378.905764,36.5734347 378.728439,36.4050569 C378.551114,36.2366791 378.448007,36.0047655 378.441818,35.760375 C378.441818,35.760375 378.433939,35.7525 378.441818,35.728875 L378.441818,35.728875 Z" id="Shape" fill="#56C4CF"></path>
                        <rect id="Rectangle-path" fill="#FFFFFF" x="232.581818" y="15.757875" width="1" height="31.413375"></rect>
                    </g>
                </g>
            </g>
        </g>
    </g>
</svg>
